<?xml version="1.0" encoding="UTF-8" standalone="no"?><!DOCTYPE svg PUBLIC "-//W3C//DTD SVG 1.1//EN" "http://www.w3.org/Graphics/SVG/1.1/DTD/svg11.dtd"><svg width="100%" height="100%" viewBox="0 0 284 284" version="1.1" xmlns="http://www.w3.org/2000/svg" xmlns:xlink="http://www.w3.org/1999/xlink" xml:space="preserve" xmlns:serif="http://www.serif.com/" style="fill-rule:evenodd;clip-rule:evenodd;stroke-linejoin:round;stroke-miterlimit:2;"><g><path d="M0,141.891c0,-24.281 3.68,-45.328 11.039,-63.141c7.359,-17.812 17.555,-32.531 30.586,-44.156c13.031,-11.625 28.102,-20.297 45.211,-26.016c17.109,-5.719 35.461,-8.578 55.055,-8.578c19.594,0 37.969,2.906 55.125,8.719c17.156,5.812 32.227,14.602 45.211,26.367c12.984,11.766 23.156,26.531 30.516,44.297c7.359,17.766 11.039,38.602 11.039,62.508c0,23.438 -3.68,44.016 -11.039,61.734c-7.359,17.719 -17.531,32.531 -30.516,44.438c-12.984,11.906 -28.055,20.836 -45.211,26.789c-17.156,5.953 -35.531,8.93 -55.125,8.93c-19.594,0 -37.945,-2.977 -55.055,-8.93c-17.109,-5.953 -32.18,-14.859 -45.211,-26.719c-13.031,-11.859 -23.227,-26.648 -30.586,-44.367c-7.359,-17.719 -11.039,-38.344 -11.039,-61.875Z" style="fill:#f3ad61;fill-rule:nonzero;"/><path d="M181.406,63.984c-2.719,-0.188 -5.203,-0.984 -7.453,-2.391c-2.25,-1.406 -3.984,-3.375 -5.203,-5.906c-1.875,-3.938 -2.062,-7.969 -0.562,-12.094c1.5,-4.125 4.266,-7.031 8.297,-8.719c3.375,-1.406 6.844,-1.547 10.406,-0.422c3.562,1.125 6.328,3.234 8.297,6.328c1.406,2.344 2.156,4.781 2.25,7.312l0.422,6.188c0.188,2.812 -0.75,5.273 -2.812,7.383c-2.062,2.109 -4.547,3.023 -7.453,2.742l-6.188,-0.422Z" style="fill:#6d4534;fill-rule:nonzero;"/><path d="M252.562,127.688c-0.188,2.719 -0.984,5.203 -2.391,7.453c-1.406,2.25 -3.375,3.984 -5.906,5.203c-3.938,1.875 -7.969,2.062 -12.094,0.562c-4.125,-1.5 -7.031,-4.266 -8.719,-8.297c-1.406,-3.375 -1.547,-6.844 -0.422,-10.406c1.125,-3.562 3.234,-6.328 6.328,-8.297c2.344,-1.406 4.781,-2.156 7.312,-2.25l6.188,-0.422c2.812,-0.188 5.273,0.75 7.383,2.812c2.109,2.062 3.023,4.547 2.742,7.453l-0.422,6.188Z" style="fill:#6d4534;fill-rule:nonzero;"/><path d="M87.328,228.234c-0.188,3.562 0.984,6.633 3.516,9.211c2.531,2.578 5.625,3.727 9.281,3.445l7.594,-0.422c3.188,-0.281 6.188,-1.266 9,-2.953c3.844,-2.438 6.469,-5.859 7.875,-10.266c1.406,-4.406 1.219,-8.719 -0.562,-12.938c-2.062,-5.062 -5.648,-8.531 -10.758,-10.406c-5.109,-1.875 -10.102,-1.594 -14.977,0.844c-3.094,1.594 -5.555,3.797 -7.383,6.609c-1.828,2.812 -2.836,5.859 -3.023,9.141l-0.562,7.734Z" style="fill:#6d4534;fill-rule:nonzero;"/><path d="M186.469,133.734c-0.281,5.062 -1.828,9.82 -4.641,14.273c-2.812,4.453 -6.703,7.898 -11.672,10.336c-5.156,2.531 -10.453,3.539 -15.891,3.023c-5.438,-0.516 -10.383,-2.367 -14.836,-5.555c-4.453,-3.188 -7.758,-7.453 -9.914,-12.797c-2.812,-6.75 -3.047,-13.641 -0.703,-20.672c2.344,-7.031 6.656,-12.375 12.938,-16.031c4.219,-2.531 8.719,-3.891 13.5,-4.078l4.5,-0.281c7.688,-0.469 14.25,2.016 19.688,7.453c5.438,5.438 7.875,11.953 7.312,19.547l-0.281,4.781Z" style="fill:#6d4534;fill-rule:nonzero;"/><path d="M57.234,70.875c-0.375,-6.938 1.898,-12.867 6.82,-17.789c4.922,-4.922 10.852,-7.148 17.789,-6.68l4.078,0.281c4.312,0.188 8.391,1.406 12.234,3.656c5.719,3.375 9.633,8.25 11.742,14.625c2.109,6.375 1.945,12.609 -0.492,18.703c-3,7.312 -8.156,12.328 -15.469,15.047c-7.312,2.719 -14.484,2.344 -21.516,-1.125c-4.406,-2.25 -7.898,-5.391 -10.477,-9.422c-2.578,-4.031 -4.008,-8.344 -4.289,-12.938l-0.422,-4.359Z" style="fill:#6d4534;fill-rule:nonzero;"/><path d="M225.703,211.078c-0.281,-4.031 -1.523,-7.758 -3.727,-11.18c-2.203,-3.422 -5.227,-6.07 -9.07,-7.945c-6,-3 -12.141,-3.328 -18.422,-0.984c-6.281,2.344 -10.688,6.609 -13.219,12.797c-2.156,5.25 -2.32,10.594 -0.492,16.031c1.828,5.438 5.18,9.609 10.055,12.516c3.281,1.875 6.797,2.906 10.547,3.094l3.516,0.281c5.906,0.375 10.969,-1.547 15.188,-5.766c4.219,-4.219 6.141,-9.328 5.766,-15.328l-0.141,-3.516Z" style="fill:#6d4534;fill-rule:nonzero;"/><path d="M39.234,151.172c-0.188,-2.906 0.75,-5.391 2.812,-7.453c2.062,-2.062 4.547,-2.953 7.453,-2.672l6.188,0.281c2.438,0.094 4.828,0.844 7.172,2.25c3.188,1.969 5.344,4.734 6.469,8.297c1.125,3.562 0.984,7.078 -0.422,10.547c-1.781,4.031 -4.734,6.797 -8.859,8.297c-4.125,1.5 -8.109,1.266 -11.953,-0.703c-5.25,-2.344 -8.062,-6.516 -8.438,-12.516l-0.422,-6.328Z" style="fill:#6d4534;fill-rule:nonzero;"/></g></svg>